<svg xmlns="http://www.w3.org/2000/svg" width="1280" height="640" viewBox="0 0 1280 640">
  <defs>
    <radialGradient id="bg" cx="50%" cy="50%" r="70%">
      <stop offset="0%" stop-color="#0c1a35"/>
      <stop offset="100%" stop-color="#030712"/>
    </radialGradient>
    <radialGradient id="glow" cx="50%" cy="50%" r="50%">
      <stop offset="0%" stop-color="#fbbf24" stop-opacity="0.3"/>
      <stop offset="100%" stop-color="#fbbf24" stop-opacity="0"/>
    </radialGradient>
  </defs>
  <rect width="1280" height="640" fill="url(#bg)"/>
  <!-- Stars -->
  <circle cx="100" cy="80" r="1" fill="white" opacity="0.6"/>
  <circle cx="200" cy="150" r="1.5" fill="white" opacity="0.4"/>
  <circle cx="350" cy="60" r="1" fill="white" opacity="0.7"/>
  <circle cx="500" cy="120" r="1.5" fill="white" opacity="0.5"/>
  <circle cx="700" cy="50" r="1" fill="white" opacity="0.6"/>
  <circle cx="900" cy="100" r="1.5" fill="white" opacity="0.4"/>
  <circle cx="1050" cy="70" r="1" fill="white" opacity="0.7"/>
  <circle cx="1180" cy="130" r="1.5" fill="white" opacity="0.5"/>
  <circle cx="150" cy="500" r="1" fill="white" opacity="0.5"/>
  <circle cx="400" cy="550" r="1.5" fill="white" opacity="0.3"/>
  <circle cx="800" cy="520" r="1" fill="white" opacity="0.6"/>
  <circle cx="1100" cy="560" r="1.5" fill="white" opacity="0.4"/>
  <!-- Orbital rings -->
  <ellipse cx="640" cy="320" rx="280" ry="120" fill="none" stroke="#7c3aed" stroke-width="0.5" opacity="0.2"/>
  <ellipse cx="640" cy="320" rx="220" ry="95" fill="none" stroke="#8b5cf6" stroke-width="0.5" opacity="0.25"/>
  <ellipse cx="640" cy="320" rx="160" ry="70" fill="none" stroke="#a78bfa" stroke-width="0.7" opacity="0.3"/>
  <ellipse cx="640" cy="320" rx="100" ry="45" fill="none" stroke="#c4b5fd" stroke-width="0.8" opacity="0.35"/>
  <!-- Core glow -->
  <circle cx="640" cy="320" r="80" fill="url(#glow)"/>
  <circle cx="640" cy="320" r="25" fill="#fbbf24" opacity="0.9"/>
  <circle cx="640" cy="320" r="18" fill="#fde68a"/>
  <!-- Memory nodes on orbits -->
  <circle cx="820" cy="290" r="5" fill="#c084fc" opacity="0.8"/>
  <circle cx="470" cy="350" r="4" fill="#a78bfa" opacity="0.7"/>
  <circle cx="750" cy="380" r="3" fill="#7c3aed" opacity="0.6"/>
  <circle cx="530" cy="260" r="4" fill="#8b5cf6" opacity="0.7"/>
  <circle cx="880" cy="340" r="3" fill="#6d28d9" opacity="0.5"/>
  <!-- Title -->
  <text x="640" y="160" text-anchor="middle" font-family="Inter, system-ui, sans-serif" font-size="56" font-weight="700" fill="white">Stellar Memory</text>
  <!-- Subtitle -->
  <text x="640" y="210" text-anchor="middle" font-family="Inter, system-ui, sans-serif" font-size="22" font-weight="400" fill="#94a3b8">Give any AI human-like memory</text>
  <!-- Bottom tagline -->
  <text x="640" y="510" text-anchor="middle" font-family="Inter, system-ui, sans-serif" font-size="16" fill="#64748b">5 Orbital Zones | Emotion Engine | Metacognition | Self-Learning | MCP</text>
  <!-- pip install badge -->
  <rect x="490" y="535" width="300" height="36" rx="18" fill="#1e1b4b" opacity="0.8"/>
  <text x="640" y="559" text-anchor="middle" font-family="JetBrains Mono, monospace" font-size="15" fill="#a78bfa">pip install stellar-memory</text>
</svg>
